<svg width="101" height="32" viewBox="0 0 101 32" fill="none" xmlns="http://www.w3.org/2000/svg">
<path d="M1.312 4.076C1.024 3.74 0.88 3.32 0.88 2.816C0.88 2.312 1.024 1.904 1.312 1.592C1.6 1.256 2.02 1.088 2.572 1.088C3.124 1.088 3.556 1.256 3.868 1.592C4.18 1.928 4.336 2.336 4.336 2.816C4.336 3.296 4.18 3.704 3.868 4.04C3.556 4.376 3.124 4.544 2.572 4.544C2.02 4.544 1.6 4.388 1.312 4.076ZM1.24 26V8H3.976V26H1.24ZM22.6189 7.28C21.6109 6.2 20.1949 5.66 18.3709 5.66C16.5469 5.66 15.0589 6.476 13.9069 8.108C12.7789 9.716 12.1069 11.876 11.8909 14.588C13.6429 13.124 15.4789 12.392 17.3989 12.392C18.7429 12.392 19.9069 12.608 20.8909 13.04C21.8989 13.472 22.6429 14.048 23.1229 14.768C24.0829 16.112 24.5629 17.552 24.5629 19.088C24.5629 21.176 23.9269 22.952 22.6549 24.416C21.3829 25.856 19.4509 26.576 16.8589 26.576C14.2909 26.576 12.3349 25.652 10.9909 23.804C9.67094 21.932 9.01094 19.592 9.01094 16.784C9.01094 12.704 9.83894 9.404 11.4949 6.884C13.1749 4.364 15.4669 3.104 18.3709 3.104C20.7229 3.104 22.5589 3.764 23.8789 5.084L22.6189 7.28ZM17.3269 14.912C15.1909 14.912 13.3669 15.86 11.8549 17.756C12.1669 21.932 13.8709 24.02 16.9669 24.02C18.5029 24.02 19.6789 23.564 20.4949 22.652C21.3349 21.74 21.7549 20.648 21.7549 19.376C21.7549 18.68 21.6469 18.032 21.4309 17.432C21.2389 16.808 20.7829 16.232 20.0629 15.704C19.3669 15.176 18.4549 14.912 17.3269 14.912ZM28.5798 21.104C29.2998 21.896 30.2358 22.556 31.3878 23.084C32.5638 23.612 33.8358 23.876 35.2038 23.876C36.5958 23.876 37.7838 23.516 38.7678 22.796C39.7758 22.076 40.2798 21.068 40.2798 19.772C40.2798 18.452 39.8478 17.42 38.9838 16.676C38.1438 15.932 37.1118 15.368 35.8878 14.984C34.6878 14.6 33.4758 14.192 32.2518 13.76C31.0518 13.328 30.0198 12.62 29.1558 11.636C28.3158 10.628 27.8958 9.308 27.8958 7.676C27.8958 5.444 28.6158 3.764 30.0558 2.636C31.5198 1.508 33.2358 0.943999 35.2038 0.943999C37.9158 0.943999 40.1598 1.508 41.9358 2.636L40.4958 4.94C39.1278 4.076 37.3518 3.644 35.1678 3.644C34.0158 3.644 32.9958 3.968 32.1078 4.616C31.2198 5.264 30.7758 6.224 30.7758 7.496C30.7758 9.104 31.6038 10.28 33.2598 11.024C33.9798 11.36 34.7718 11.66 35.6358 11.924C36.5238 12.188 37.3998 12.5 38.2638 12.86C39.1518 13.22 39.9558 13.652 40.6758 14.156C42.3318 15.284 43.1598 17.048 43.1598 19.448C43.1598 21.824 42.3918 23.612 40.8558 24.812C39.3438 25.988 37.4238 26.576 35.0957 26.576C31.9998 26.576 29.2758 25.472 26.9238 23.264L28.5798 21.104ZM45.2745 10.34V8H48.0105L48.8745 2.6H50.7465V8H54.9585V10.34H50.7465V22.076C50.7465 23.396 51.2865 24.056 52.3665 24.056C53.1825 24.056 54.0705 23.708 55.0305 23.012L56.0385 24.848C54.6465 25.952 53.2905 26.504 51.9705 26.504C50.6505 26.504 49.6545 26.192 48.9825 25.568C48.3345 24.92 48.0105 23.756 48.0105 22.076V10.34H45.2745ZM58.8484 8H61.5844V18.944C61.5844 22.352 62.7964 24.056 65.2204 24.056C66.6124 24.056 67.8724 23.348 69.0004 21.932C70.1524 20.492 70.7644 18.512 70.8364 15.992V8H73.5724V22.4L73.9324 26L71.5564 26.18L70.8364 22.472C70.1164 23.768 69.2044 24.764 68.1004 25.46C66.9964 26.156 65.8804 26.504 64.7524 26.504C60.8164 26.504 58.8484 23.984 58.8484 18.944V8ZM78.0845 10.34V8H80.4245V6.164C80.4245 4.124 80.8445 2.636 81.6845 1.7C82.5485 0.763999 83.6645 0.295998 85.0325 0.295998C86.4245 0.295998 87.8645 0.775999 89.3525 1.736L88.2725 3.68C87.0245 3.128 86.0525 2.852 85.3565 2.852C83.8925 2.852 83.1605 3.908 83.1605 6.02V8H87.3005V10.34H83.1605V31.76H80.4245V10.34H78.0845ZM88.983 10.34V8H91.323V6.164C91.323 4.124 91.743 2.636 92.583 1.7C93.447 0.763999 94.563 0.295998 95.931 0.295998C97.323 0.295998 98.763 0.775999 100.251 1.736L99.171 3.68C97.923 3.128 96.951 2.852 96.255 2.852C94.791 2.852 94.059 3.908 94.059 6.02V8H98.199V10.34H94.059V31.76H91.323V10.34H88.983Z" fill="black"/>
</svg>
