<svg width="120" height="29" viewBox="0 0 120 29" fill="none" xmlns="http://www.w3.org/2000/svg">
<path d="M6.83984 4.5332V24.8359C6.83984 25.7852 7.0332 26.4766 7.41992 26.9102C7.80664 27.3438 8.53906 27.6602 9.61719 27.8594L9.47656 28.2812C8.17578 28.1055 7.18555 28.0117 6.50586 28C5.82617 27.9883 4.95898 28.082 3.9043 28.2812L3.78125 28.1055C4.02734 27.7656 4.15039 27.1445 4.15039 26.2422V7.76758C4.15039 6.11523 3.95117 5.00195 3.55273 4.42773C3.1543 3.85352 2.32227 3.61328 1.05664 3.70703L0.986328 3.37305C2.91992 2.79883 4.75391 2.51172 6.48828 2.51172C6.72266 3.15625 6.83984 3.83008 6.83984 4.5332ZM25.2969 2.91602C22.6719 3.38477 20.6035 4.75586 19.0918 7.0293C17.5918 9.29102 16.707 12.4785 16.4375 16.5918C17.1992 15.7949 18.0898 15.1914 19.1094 14.7812C20.1289 14.3594 21.1836 14.1484 22.2734 14.1484C23.1172 14.1484 23.9199 14.2832 24.6816 14.5527C25.4434 14.8223 26.1289 15.2148 26.7383 15.7305C27.3477 16.2461 27.8281 16.9258 28.1797 17.7695C28.543 18.6016 28.7246 19.5508 28.7246 20.6172C28.7246 22.0938 28.4082 23.4414 27.7754 24.6602C27.1426 25.8672 26.252 26.8223 25.1035 27.5254C23.9668 28.2285 22.6777 28.5801 21.2363 28.5801C18.8574 28.5801 16.9883 27.7422 15.6289 26.0664C14.2812 24.3789 13.6074 22.0117 13.6074 18.9648C13.6074 16.4336 13.9004 14.125 14.4863 12.0391C15.084 9.95312 15.9043 8.20703 16.9473 6.80078C17.9902 5.39453 19.209 4.28711 20.6035 3.47852C22.0098 2.6582 23.5391 2.17773 25.1914 2.03711L25.2969 2.91602ZM21.1309 15.3965C20.2754 15.3965 19.4316 15.6191 18.5996 16.0645C17.7676 16.5098 17.0234 17.166 16.3672 18.0332V19.2461C16.3672 20.1367 16.4551 21.0332 16.6309 21.9355C16.8066 22.8379 17.0762 23.7285 17.4395 24.6074C17.8027 25.4746 18.3242 26.1836 19.0039 26.7344C19.6953 27.2852 20.498 27.5605 21.4121 27.5605C22.1738 27.5605 22.8535 27.3672 23.4512 26.9805C24.0605 26.582 24.541 26.0547 24.8926 25.3984C25.2441 24.7422 25.5078 24.0332 25.6836 23.2715C25.8594 22.498 25.9473 21.6953 25.9473 20.8633C25.9473 19.1406 25.4844 17.7988 24.5586 16.8379C23.6328 15.877 22.4902 15.3965 21.1309 15.3965ZM36.9336 27.1387L36.582 27.4902C35.5273 27.6074 34.5781 27.9238 33.7344 28.4395C33.2305 27.1973 32.8848 26.1602 32.6973 25.3281C33.8926 24.7188 35.0762 24.3496 36.248 24.2207C36.248 25.0879 36.4766 26.0605 36.9336 27.1387ZM53.1934 23.9043C53.1934 24.748 53.0234 25.4746 52.6836 26.084C52.3438 26.6934 51.8867 27.1973 51.3125 27.5957C50.75 27.9824 50.0879 28.2637 49.3262 28.4395C48.5762 28.627 47.7852 28.7207 46.9531 28.7207C44.9375 28.7207 43.0449 28.2988 41.2754 27.4551C41.498 26.6816 41.7207 25.9668 41.9434 25.3105C42.166 24.6426 42.3945 24.0273 42.6289 23.4648L43.1387 23.6406C43.0332 24.1562 42.9805 24.6543 42.9805 25.1348C42.9805 25.6035 42.998 26.0312 43.0332 26.418C43.3965 26.6055 43.7363 26.7695 44.0527 26.9102C44.3691 27.0391 44.6855 27.1504 45.002 27.2441C45.3184 27.3262 45.6582 27.3906 46.0215 27.4375C46.3848 27.4727 46.8066 27.4902 47.2871 27.4902C48.002 27.4902 48.5938 27.4434 49.0625 27.3496C49.5312 27.2559 49.8945 27.0977 50.1523 26.875C50.4219 26.6406 50.6094 26.3359 50.7148 25.9609C50.8203 25.5742 50.873 25.0996 50.873 24.5371C50.873 24.1035 50.7969 23.6992 50.6445 23.3242C50.5039 22.9375 50.252 22.5566 49.8887 22.1816C49.5371 21.8066 49.0625 21.4199 48.4648 21.0215C47.8789 20.6113 47.1465 20.166 46.2676 19.6855C44.8496 18.8418 43.7773 18.0039 43.0508 17.1719C42.3242 16.3281 41.9609 15.4258 41.9609 14.4648C41.9609 13.7031 42.1191 13.0293 42.4355 12.4434C42.752 11.8457 43.1797 11.3477 43.7188 10.9492C44.2695 10.5391 44.9082 10.2344 45.6348 10.0352C46.3613 9.82422 47.1289 9.71875 47.9375 9.71875C48.3477 9.71875 48.7754 9.74805 49.2207 9.80664C49.6777 9.86523 50.1172 9.95312 50.5391 10.0703C50.9609 10.1758 51.3535 10.3105 51.7168 10.4746C52.0918 10.627 52.4141 10.8027 52.6836 11.002C52.3086 12.5371 51.8516 13.8848 51.3125 15.0449L50.8027 14.8516C50.8262 14.5117 50.8438 14.0957 50.8555 13.6035C50.8672 13.0996 50.873 12.5078 50.873 11.8281C50.1113 11.2305 49.0566 10.9316 47.709 10.9316C47.041 10.9316 46.4727 10.9727 46.0039 11.0547C45.5469 11.1367 45.1777 11.2773 44.8965 11.4766C44.6152 11.6758 44.4102 11.9512 44.2812 12.3027C44.1641 12.6426 44.1055 13.0762 44.1055 13.6035C44.1055 13.9902 44.1582 14.3535 44.2637 14.6934C44.3691 15.0215 44.5566 15.3496 44.8262 15.6777C45.0957 15.9941 45.459 16.3223 45.916 16.6621C46.3848 16.9902 46.9824 17.3477 47.709 17.7344C48.8457 18.3555 49.7656 18.9004 50.4688 19.3691C51.1836 19.8379 51.7402 20.3008 52.1387 20.7578C52.5488 21.2031 52.8242 21.6719 52.9648 22.1641C53.1172 22.6562 53.1934 23.2363 53.1934 23.9043ZM61.9473 23.1484C61.9473 24.7422 62.123 25.8438 62.4746 26.4531C62.8262 27.0508 63.3945 27.3496 64.1797 27.3496C65.0352 27.3496 66.0781 27.0273 67.3086 26.3828L67.8535 27.1387C65.9199 28.1934 64.3379 28.7207 63.1074 28.7207C62.4512 28.7207 61.918 28.6621 61.5078 28.5449C61.0977 28.4277 60.7227 28.1992 60.3828 27.8594C60.043 27.5195 59.7969 27.0215 59.6445 26.3652C59.5039 25.6973 59.4336 24.8359 59.4336 23.7812V11.8633L56.7969 12.0215V10.8965C57.7227 10.6973 58.6016 10.5684 59.4336 10.5098V8.01367C60.4297 7.45117 61.2441 6.64844 61.877 5.60547L62.4219 5.81641C62.2227 6.28516 62.0938 6.81836 62.0352 7.41602C61.9766 8.00195 61.9473 8.99805 61.9473 10.4043H67.9941V11.0195C67.502 11.2188 67.0039 11.3887 66.5 11.5293C65.9961 11.6582 65.4746 11.7227 64.9355 11.7227H61.9473V23.1484ZM87.1367 23.0957C87.1367 23.8809 87.1719 24.5371 87.2422 25.0645C87.3242 25.5801 87.459 25.9961 87.6465 26.3125C87.8457 26.6289 88.1152 26.8574 88.4551 26.998C88.7949 27.127 89.1523 27.1914 89.5273 27.1914C89.9023 27.1914 90.1367 27.1855 90.2305 27.1738L90.3184 27.4902C88.3848 28.0645 86.6035 28.3516 84.9746 28.3516C84.7402 27.7188 84.623 27.0508 84.623 26.3477V25.5215C84.002 26.0723 83.4219 26.5469 82.8828 26.9453C82.3555 27.3438 81.834 27.6777 81.3184 27.9473C80.8027 28.2051 80.2754 28.3984 79.7363 28.5273C79.1973 28.6562 78.6172 28.7207 77.9961 28.7207C77.293 28.7207 76.5898 28.6387 75.8867 28.4746C75.1953 28.3105 74.5684 28.0176 74.0059 27.5957C73.4434 27.1738 72.9863 26.5996 72.6348 25.873C72.2949 25.1465 72.125 24.2207 72.125 23.0957V12.2324C72.125 11.7637 71.9258 11.4062 71.5273 11.1602C71.1406 10.9141 70.5605 10.6855 69.7871 10.4746L69.9277 10.0352C70.6074 10.1758 71.4863 10.2461 72.5645 10.2461C73.2324 10.2461 74.0117 10.1523 74.9023 9.96484L75.0078 10.1406C74.7734 10.5039 74.6562 11.1309 74.6562 12.0215V22.4629C74.6562 23.4355 74.7676 24.2383 74.9902 24.8711C75.2129 25.4922 75.5117 25.9844 75.8867 26.3477C76.2617 26.7109 76.7012 26.9629 77.2051 27.1035C77.709 27.2324 78.2422 27.2969 78.8047 27.2969C79.332 27.2969 79.8184 27.2441 80.2637 27.1387C80.7207 27.0215 81.1777 26.8457 81.6348 26.6113C82.0918 26.3652 82.5605 26.0547 83.041 25.6797C83.5215 25.293 84.0488 24.8301 84.623 24.291V12.6719C84.623 12.3086 84.5879 12.0156 84.5176 11.793C84.459 11.5586 84.3359 11.3652 84.1484 11.2129C83.9727 11.0488 83.7148 10.9082 83.375 10.791C83.0352 10.6738 82.5898 10.5449 82.0391 10.4043L82.1797 9.96484C82.8477 10.0586 83.4219 10.1289 83.9023 10.1758C84.3828 10.2227 84.7695 10.2461 85.0625 10.2461C85.7305 10.2461 86.5098 10.1523 87.4004 9.96484L87.5059 10.1406C87.2598 10.4922 87.1367 11.1191 87.1367 12.0215V23.0957ZM100.338 2.40625C99.7168 2.81641 99.2715 3.68359 99.002 5.00781C98.7324 6.33203 98.5684 8.13086 98.5098 10.4043H104.346V11.002C104.135 11.0957 103.883 11.1895 103.59 11.2832C103.297 11.3652 102.986 11.4414 102.658 11.5117C102.33 11.5703 101.996 11.623 101.656 11.6699C101.328 11.7051 101.023 11.7227 100.742 11.7227H98.5098V24.8359C98.5098 25.3047 98.5566 25.709 98.6504 26.0488C98.7559 26.3887 98.9258 26.6758 99.1602 26.9102C99.3945 27.1445 99.6992 27.3379 100.074 27.4902C100.449 27.6426 100.912 27.7656 101.463 27.8594L101.305 28.2812C100.637 28.1875 100.033 28.1172 99.4941 28.0703C98.9551 28.0234 98.4805 28 98.0703 28C97.4023 28 96.623 28.0938 95.7324 28.2812L95.627 28.1055C95.8613 27.7656 95.9785 27.1445 95.9785 26.2422V11.8281L92.9902 12.0215V11.0371C94.1855 10.6621 95.1816 10.4746 95.9785 10.4746V9.89453C95.9785 8.875 96.0254 7.9375 96.1191 7.08203C96.2129 6.21484 96.3945 5.42969 96.6641 4.72656C96.9336 4.01172 97.3027 3.38477 97.7715 2.8457C98.252 2.29492 98.8789 1.82617 99.6523 1.43945C100.262 1.13477 100.889 0.917969 101.533 0.789062C102.189 0.660156 102.91 0.595703 103.695 0.595703C104 0.595703 104.311 0.607422 104.627 0.630859C104.955 0.642578 105.301 0.660156 105.664 0.683594C105.676 0.8125 105.682 0.941406 105.682 1.07031C105.682 1.1875 105.682 1.36914 105.682 1.61523C105.682 1.84961 105.664 2.14844 105.629 2.51172C105.605 2.875 105.57 3.22656 105.523 3.56641C105.477 3.90625 105.418 4.22852 105.348 4.5332C105.289 4.83789 105.219 5.10156 105.137 5.32422L104.557 5.21875C104.557 4.99609 104.533 4.7207 104.486 4.39258C104.451 4.05273 104.404 3.71875 104.346 3.39062C104.287 3.0625 104.223 2.76953 104.152 2.51172C104.082 2.24219 104.012 2.06055 103.941 1.9668C103.426 1.83789 102.957 1.77344 102.535 1.77344C101.715 1.77344 100.982 1.98438 100.338 2.40625ZM113.732 2.40625C113.111 2.81641 112.666 3.68359 112.396 5.00781C112.127 6.33203 111.963 8.13086 111.904 10.4043H117.74V11.002C117.529 11.0957 117.277 11.1895 116.984 11.2832C116.691 11.3652 116.381 11.4414 116.053 11.5117C115.725 11.5703 115.391 11.623 115.051 11.6699C114.723 11.7051 114.418 11.7227 114.137 11.7227H111.904V24.8359C111.904 25.3047 111.951 25.709 112.045 26.0488C112.15 26.3887 112.32 26.6758 112.555 26.9102C112.789 27.1445 113.094 27.3379 113.469 27.4902C113.844 27.6426 114.307 27.7656 114.857 27.8594L114.699 28.2812C114.031 28.1875 113.428 28.1172 112.889 28.0703C112.35 28.0234 111.875 28 111.465 28C110.797 28 110.018 28.0938 109.127 28.2812L109.021 28.1055C109.256 27.7656 109.373 27.1445 109.373 26.2422V11.8281L106.385 12.0215V11.0371C107.58 10.6621 108.576 10.4746 109.373 10.4746V9.89453C109.373 8.875 109.42 7.9375 109.514 7.08203C109.607 6.21484 109.789 5.42969 110.059 4.72656C110.328 4.01172 110.697 3.38477 111.166 2.8457C111.646 2.29492 112.273 1.82617 113.047 1.43945C113.656 1.13477 114.283 0.917969 114.928 0.789062C115.584 0.660156 116.305 0.595703 117.09 0.595703C117.395 0.595703 117.705 0.607422 118.021 0.630859C118.35 0.642578 118.695 0.660156 119.059 0.683594C119.07 0.8125 119.076 0.941406 119.076 1.07031C119.076 1.1875 119.076 1.36914 119.076 1.61523C119.076 1.84961 119.059 2.14844 119.023 2.51172C119 2.875 118.965 3.22656 118.918 3.56641C118.871 3.90625 118.812 4.22852 118.742 4.5332C118.684 4.83789 118.613 5.10156 118.531 5.32422L117.951 5.21875C117.951 4.99609 117.928 4.7207 117.881 4.39258C117.846 4.05273 117.799 3.71875 117.74 3.39062C117.682 3.0625 117.617 2.76953 117.547 2.51172C117.477 2.24219 117.406 2.06055 117.336 1.9668C116.82 1.83789 116.352 1.77344 115.93 1.77344C115.109 1.77344 114.377 1.98438 113.732 2.40625Z" fill="black"/>
</svg>
