<svg xmlns="http://www.w3.org/2000/svg" version="1.1" xmlns:xlink="http://www.w3.org/1999/xlink" width="512" height="512" x="0" y="0" viewBox="0 0 512 512" style="enable-background:new 0 0 512 512" xml:space="preserve" class=""><g><path fill="#fff9dd" d="M416 512H96c-53.023 0-96-42.977-96-96V96C0 42.977 42.977 0 96 0h320c53.023 0 96 42.977 96 96v320c0 53.023-42.977 96-96 96zm0 0" opacity="1" data-original="#fff9dd" class=""></path><path fill="#ffd200" d="M383.328 226.031a13.596 13.596 0 0 0-11.695-9.344l-73.906-6.718-29.215-68.367c-2.145-5.028-7.055-8.274-12.512-8.274s-10.367 3.246-12.512 8.274l-29.215 68.367-73.906 6.719c-5.422.496-10.015 4.16-11.695 9.343s-.129 10.864 3.969 14.465l55.87 48.977-16.48 72.543a13.595 13.595 0 0 0 5.281 14.046 13.498 13.498 0 0 0 7.985 2.594c2.398 0 4.816-.64 6.976-1.937L256 338.625l63.71 38.094a13.596 13.596 0 0 0 14.962-.656 13.595 13.595 0 0 0 5.281-14.047l-16.48-72.543 55.87-48.993a13.588 13.588 0 0 0 3.985-14.449zm0 0" opacity="1" data-original="#ffd200" class=""></path></g></svg>